  0
SECTION
  2
HEADER
  9
$ACADVER
  1
AC1006
  9
$INSBASE
  10
0.000000
  20
0.000000
  30
0.000000
  9
$EXTMIN
  10
0.000000
  20
0.000000
  9
$EXTMAX
  10
1000.000000
  20
1000.000000
  0
ENDSEC
  0
SECTION
  2
BLOCKS
  0
BLOCK
  8
0
  2
Pattern_636968_M
  70
64
  10
0
  20
0
  0
TEXT
  8
1
  10
-9.282026
  20
54.703686
  50
0.000000
  51
0.000000
  71
0.000000
  1
PIECE NAME: Pattern_636968
  7
STANDARD
  0
TEXT
  8
1
  10
-9.282026
  20
49.703686
  50
0.000000
  51
0.000000
  71
0.000000
  1
SIZE: M
  7
STANDARD
  0
TEXT
  8
1
  10
-9.282026
  20
39.703686
  50
0.000000
  51
0.000000
  71
0.000000
  1
QUANTITY: 1
  7
STANDARD
  0
TEXT
  8
1
  10
-9.282026
  20
39.703686
  40
0.250000
  50
0.000000
  1
ROTATION: 0
  7
STANDARD
  0
POLYLINE
  8
1
  66
1
  70
1
  250
2
  0
VERTEX
  8
1
  10
-9.266447
  20
66.422943
  0
VERTEX
  8
1
  10
-9.284942
  20
66.424812
  0
VERTEX
  8
1
  10
-9.338609
  20
66.430649
  0
VERTEX
  8
1
  10
-9.424722
  20
66.440781
  0
VERTEX
  8
1
  10
-9.540552
  20
66.455544
  0
VERTEX
  8
1
  10
-9.683375
  20
66.475266
  0
VERTEX
  8
1
  10
-9.850465
  20
66.500282
  0
VERTEX
  8
1
  10
-10.039091
  20
66.530922
  0
VERTEX
  8
1
  10
-10.246531
  20
66.567520
  0
VERTEX
  8
1
  10
-10.470055
  20
66.610405
  0
VERTEX
  8
1
  10
-10.706938
  20
66.659912
  0
VERTEX
  8
1
  10
-10.954453
  20
66.716377
  0
VERTEX
  8
1
  10
-11.209873
  20
66.780128
  0
VERTEX
  8
1
  10
-11.470470
  20
66.851494
  0
VERTEX
  8
1
  10
-11.733521
  20
66.930809
  0
VERTEX
  8
1
  10
-11.996297
  20
67.018410
  0
VERTEX
  8
1
  10
-12.256070
  20
67.114624
  0
VERTEX
  8
1
  10
-12.510117
  20
67.219780
  0
VERTEX
  8
1
  10
-12.755707
  20
67.334213
  0
VERTEX
  8
1
  10
-12.990116
  20
67.458267
  0
VERTEX
  8
1
  10
-13.210616
  20
67.592255
  0
VERTEX
  8
1
  10
-13.414482
  20
67.736519
  0
VERTEX
  8
1
  10
-13.598986
  20
67.891396
  0
VERTEX
  8
1
  10
-13.761402
  20
68.057205
  0
VERTEX
  8
1
  10
-13.899002
  20
68.234291
  0
VERTEX
  8
1
  10
-14.009060
  20
68.422974
  0
VERTEX
  8
1
  10
-14.088850
  20
68.623596
  0
VERTEX
  8
1
  10
-14.135645
  20
68.836487
  0
VERTEX
  8
1
  10
-14.146718
  20
69.061974
  0
VERTEX
  8
1
  10
-14.119343
  20
69.300400
  0
VERTEX
  8
1
  10
-14.119343
  20
69.300400
  0
VERTEX
  8
1
  10
-20.068869
  20
66.157249
  0
VERTEX
  8
1
  10
-20.060387
  20
66.125832
  0
VERTEX
  8
1
  10
-20.036421
  20
66.034447
  0
VERTEX
  8
1
  10
-19.999187
  20
65.887405
  0
VERTEX
  8
1
  10
-19.950916
  20
65.689026
  0
VERTEX
  8
1
  10
-19.893818
  20
65.443611
  0
VERTEX
  8
1
  10
-19.830120
  20
65.155472
  0
VERTEX
  8
1
  10
-19.762037
  20
64.828918
  0
VERTEX
  8
1
  10
-19.691793
  20
64.468269
  0
VERTEX
  8
1
  10
-19.621611
  20
64.077827
  0
VERTEX
  8
1
  10
-19.553705
  20
63.661900
  0
VERTEX
  8
1
  10
-19.490297
  20
63.224804
  0
VERTEX
  8
1
  10
-19.433613
  20
62.770851
  0
VERTEX
  8
1
  10
-19.385868
  20
62.304344
  0
VERTEX
  8
1
  10
-19.349281
  20
61.829597
  0
VERTEX
  8
1
  10
-19.326077
  20
61.350925
  0
VERTEX
  8
1
  10
-19.318474
  20
60.872635
  0
VERTEX
  8
1
  10
-19.328693
  20
60.399036
  0
VERTEX
  8
1
  10
-19.358952
  20
59.934437
  0
VERTEX
  8
1
  10
-19.411478
  20
59.483154
  0
VERTEX
  8
1
  10
-19.488483
  20
59.049492
  0
VERTEX
  8
1
  10
-19.592194
  20
58.637764
  0
VERTEX
  8
1
  10
-19.724827
  20
58.252285
  0
VERTEX
  8
1
  10
-19.888607
  20
57.897354
  0
VERTEX
  8
1
  10
-20.085747
  20
57.577293
  0
VERTEX
  8
1
  10
-20.318478
  20
57.296406
  0
VERTEX
  8
1
  10
-20.589008
  20
57.059006
  0
VERTEX
  8
1
  10
-20.899570
  20
56.869404
  0
VERTEX
  8
1
  10
-21.252373
  20
56.731907
  0
VERTEX
  8
1
  10
-21.649647
  20
56.650826
  0
VERTEX
  8
1
  10
-21.649647
  20
56.650826
  0
VERTEX
  8
1
  10
-21.649647
  20
40.894371
  0
VERTEX
  8
1
  10
3.116753
  20
40.894371
  0
VERTEX
  8
1
  10
3.116753
  20
56.650826
  0
VERTEX
  8
1
  10
2.719479
  20
56.731907
  0
VERTEX
  8
1
  10
2.366675
  20
56.869404
  0
VERTEX
  8
1
  10
2.056115
  20
57.059006
  0
VERTEX
  8
1
  10
1.785582
  20
57.296406
  0
VERTEX
  8
1
  10
1.552853
  20
57.577293
  0
VERTEX
  8
1
  10
1.355713
  20
57.897354
  0
VERTEX
  8
1
  10
1.191932
  20
58.252281
  0
VERTEX
  8
1
  10
1.059298
  20
58.637764
  0
VERTEX
  8
1
  10
0.955588
  20
59.049492
  0
VERTEX
  8
1
  10
0.878582
  20
59.483154
  0
VERTEX
  8
1
  10
0.826058
  20
59.934437
  0
VERTEX
  8
1
  10
0.795799
  20
60.399036
  0
VERTEX
  8
1
  10
0.785580
  20
60.872635
  0
VERTEX
  8
1
  10
0.793181
  20
61.350925
  0
VERTEX
  8
1
  10
0.816386
  20
61.829597
  0
VERTEX
  8
1
  10
0.852971
  20
62.304344
  0
VERTEX
  8
1
  10
0.900719
  20
62.770851
  0
VERTEX
  8
1
  10
0.957404
  20
63.224804
  0
VERTEX
  8
1
  10
1.020811
  20
63.661903
  0
VERTEX
  8
1
  10
1.088715
  20
64.077827
  0
VERTEX
  8
1
  10
1.158900
  20
64.468269
  0
VERTEX
  8
1
  10
1.229144
  20
64.828918
  0
VERTEX
  8
1
  10
1.297226
  20
65.155472
  0
VERTEX
  8
1
  10
1.360925
  20
65.443611
  0
VERTEX
  8
1
  10
1.418021
  20
65.689026
  0
VERTEX
  8
1
  10
1.466295
  20
65.887405
  0
VERTEX
  8
1
  10
1.503526
  20
66.034447
  0
VERTEX
  8
1
  10
1.527492
  20
66.125832
  0
VERTEX
  8
1
  10
1.535975
  20
66.157249
  0
VERTEX
  8
1
  10
1.535975
  20
66.157249
  0
VERTEX
  8
1
  10
-4.413551
  20
69.300400
  0
VERTEX
  8
1
  10
-4.386176
  20
69.061974
  0
VERTEX
  8
1
  10
-4.397249
  20
68.836487
  0
VERTEX
  8
1
  10
-4.444044
  20
68.623596
  0
VERTEX
  8
1
  10
-4.523834
  20
68.422974
  0
VERTEX
  8
1
  10
-4.633893
  20
68.234283
  0
VERTEX
  8
1
  10
-4.771492
  20
68.057205
  0
VERTEX
  8
1
  10
-4.933908
  20
67.891396
  0
VERTEX
  8
1
  10
-5.118413
  20
67.736519
  0
VERTEX
  8
1
  10
-5.322278
  20
67.592255
  0
VERTEX
  8
1
  10
-5.542778
  20
67.458267
  0
VERTEX
  8
1
  10
-5.777187
  20
67.334213
  0
VERTEX
  8
1
  10
-6.022778
  20
67.219780
  0
VERTEX
  8
1
  10
-6.276824
  20
67.114624
  0
VERTEX
  8
1
  10
-6.536598
  20
67.018402
  0
VERTEX
  8
1
  10
-6.799373
  20
66.930809
  0
VERTEX
  8
1
  10
-7.062423
  20
66.851494
  0
VERTEX
  8
1
  10
-7.323022
  20
66.780128
  0
VERTEX
  8
1
  10
-7.578442
  20
66.716377
  0
VERTEX
  8
1
  10
-7.825956
  20
66.659912
  0
VERTEX
  8
1
  10
-8.062840
  20
66.610405
  0
VERTEX
  8
1
  10
-8.286364
  20
66.567520
  0
VERTEX
  8
1
  10
-8.493803
  20
66.530922
  0
VERTEX
  8
1
  10
-8.682430
  20
66.500282
  0
VERTEX
  8
1
  10
-8.849519
  20
66.475266
  0
VERTEX
  8
1
  10
-8.992341
  20
66.455544
  0
VERTEX
  8
1
  10
-9.108172
  20
66.440781
  0
VERTEX
  8
1
  10
-9.194285
  20
66.430649
  0
VERTEX
  8
1
  10
-9.247952
  20
66.424812
  0
VERTEX
  8
1
  10
-9.266447
  20
66.422943
  0
SEQEND
  0
POINT
  8
2
  10
-9.266447
  20
66.422943
  0
POINT
  8
2
  10
-14.119343
  20
69.300400
  0
POINT
  8
2
  10
-20.068869
  20
66.157249
  0
POINT
  8
2
  10
-21.649647
  20
56.650826
  0
POINT
  8
2
  10
-21.649647
  20
40.894371
  0
POINT
  8
2
  10
3.116753
  20
40.894371
  0
POINT
  8
2
  10
3.116753
  20
56.650826
  0
POINT
  8
2
  10
1.535975
  20
66.157249
  0
POINT
  8
2
  10
-4.413551
  20
69.300400
  0
POINT
  8
3
  10
-9.284942
  20
66.424812
  0
POINT
  8
3
  10
-9.338609
  20
66.430649
  0
POINT
  8
3
  10
-9.424722
  20
66.440781
  0
POINT
  8
3
  10
-9.540552
  20
66.455544
  0
POINT
  8
3
  10
-9.683375
  20
66.475266
  0
POINT
  8
3
  10
-9.850465
  20
66.500282
  0
POINT
  8
3
  10
-10.039091
  20
66.530922
  0
POINT
  8
3
  10
-10.246531
  20
66.567520
  0
POINT
  8
3
  10
-10.470055
  20
66.610405
  0
POINT
  8
3
  10
-10.706938
  20
66.659912
  0
POINT
  8
3
  10
-10.954453
  20
66.716377
  0
POINT
  8
3
  10
-11.209873
  20
66.780128
  0
POINT
  8
3
  10
-11.470470
  20
66.851494
  0
POINT
  8
3
  10
-11.733521
  20
66.930809
  0
POINT
  8
3
  10
-11.996297
  20
67.018410
  0
POINT
  8
3
  10
-12.256070
  20
67.114624
  0
POINT
  8
3
  10
-12.510117
  20
67.219780
  0
POINT
  8
3
  10
-12.755707
  20
67.334213
  0
POINT
  8
3
  10
-12.990116
  20
67.458267
  0
POINT
  8
3
  10
-13.210616
  20
67.592255
  0
POINT
  8
3
  10
-13.414482
  20
67.736519
  0
POINT
  8
3
  10
-13.598986
  20
67.891396
  0
POINT
  8
3
  10
-13.761402
  20
68.057205
  0
POINT
  8
3
  10
-13.899002
  20
68.234291
  0
POINT
  8
3
  10
-14.009060
  20
68.422974
  0
POINT
  8
3
  10
-14.088850
  20
68.623596
  0
POINT
  8
3
  10
-14.135645
  20
68.836487
  0
POINT
  8
3
  10
-14.146718
  20
69.061974
  0
POINT
  8
3
  10
-20.060387
  20
66.125832
  0
POINT
  8
3
  10
-20.036421
  20
66.034447
  0
POINT
  8
3
  10
-19.999187
  20
65.887405
  0
POINT
  8
3
  10
-19.950916
  20
65.689026
  0
POINT
  8
3
  10
-19.893818
  20
65.443611
  0
POINT
  8
3
  10
-19.830120
  20
65.155472
  0
POINT
  8
3
  10
-19.762037
  20
64.828918
  0
POINT
  8
3
  10
-19.691793
  20
64.468269
  0
POINT
  8
3
  10
-19.621611
  20
64.077827
  0
POINT
  8
3
  10
-19.553705
  20
63.661900
  0
POINT
  8
3
  10
-19.490297
  20
63.224804
  0
POINT
  8
3
  10
-19.433613
  20
62.770851
  0
POINT
  8
3
  10
-19.385868
  20
62.304344
  0
POINT
  8
3
  10
-19.349281
  20
61.829597
  0
POINT
  8
3
  10
-19.326077
  20
61.350925
  0
POINT
  8
3
  10
-19.318474
  20
60.872635
  0
POINT
  8
3
  10
-19.328693
  20
60.399036
  0
POINT
  8
3
  10
-19.358952
  20
59.934437
  0
POINT
  8
3
  10
-19.411478
  20
59.483154
  0
POINT
  8
3
  10
-19.488483
  20
59.049492
  0
POINT
  8
3
  10
-19.592194
  20
58.637764
  0
POINT
  8
3
  10
-19.724827
  20
58.252285
  0
POINT
  8
3
  10
-19.888607
  20
57.897354
  0
POINT
  8
3
  10
-20.085747
  20
57.577293
  0
POINT
  8
3
  10
-20.318478
  20
57.296406
  0
POINT
  8
3
  10
-20.589008
  20
57.059006
  0
POINT
  8
3
  10
-20.899570
  20
56.869404
  0
POINT
  8
3
  10
-21.252373
  20
56.731907
  0
POINT
  8
3
  10
2.719479
  20
56.731907
  0
POINT
  8
3
  10
2.366675
  20
56.869404
  0
POINT
  8
3
  10
2.056115
  20
57.059006
  0
POINT
  8
3
  10
1.785582
  20
57.296406
  0
POINT
  8
3
  10
1.552853
  20
57.577293
  0
POINT
  8
3
  10
1.355713
  20
57.897354
  0
POINT
  8
3
  10
1.191932
  20
58.252281
  0
POINT
  8
3
  10
1.059298
  20
58.637764
  0
POINT
  8
3
  10
0.955588
  20
59.049492
  0
POINT
  8
3
  10
0.878582
  20
59.483154
  0
POINT
  8
3
  10
0.826058
  20
59.934437
  0
POINT
  8
3
  10
0.795799
  20
60.399036
  0
POINT
  8
3
  10
0.785580
  20
60.872635
  0
POINT
  8
3
  10
0.793181
  20
61.350925
  0
POINT
  8
3
  10
0.816386
  20
61.829597
  0
POINT
  8
3
  10
0.852971
  20
62.304344
  0
POINT
  8
3
  10
0.900719
  20
62.770851
  0
POINT
  8
3
  10
0.957404
  20
63.224804
  0
POINT
  8
3
  10
1.020811
  20
63.661903
  0
POINT
  8
3
  10
1.088715
  20
64.077827
  0
POINT
  8
3
  10
1.158900
  20
64.468269
  0
POINT
  8
3
  10
1.229144
  20
64.828918
  0
POINT
  8
3
  10
1.297226
  20
65.155472
  0
POINT
  8
3
  10
1.360925
  20
65.443611
  0
POINT
  8
3
  10
1.418021
  20
65.689026
  0
POINT
  8
3
  10
1.466295
  20
65.887405
  0
POINT
  8
3
  10
1.503526
  20
66.034447
  0
POINT
  8
3
  10
1.527492
  20
66.125832
  0
POINT
  8
3
  10
-4.386176
  20
69.061974
  0
POINT
  8
3
  10
-4.397249
  20
68.836487
  0
POINT
  8
3
  10
-4.444044
  20
68.623596
  0
POINT
  8
3
  10
-4.523834
  20
68.422974
  0
POINT
  8
3
  10
-4.633893
  20
68.234283
  0
POINT
  8
3
  10
-4.771492
  20
68.057205
  0
POINT
  8
3
  10
-4.933908
  20
67.891396
  0
POINT
  8
3
  10
-5.118413
  20
67.736519
  0
POINT
  8
3
  10
-5.322278
  20
67.592255
  0
POINT
  8
3
  10
-5.542778
  20
67.458267
  0
POINT
  8
3
  10
-5.777187
  20
67.334213
  0
POINT
  8
3
  10
-6.022778
  20
67.219780
  0
POINT
  8
3
  10
-6.276824
  20
67.114624
  0
POINT
  8
3
  10
-6.536598
  20
67.018402
  0
POINT
  8
3
  10
-6.799373
  20
66.930809
  0
POINT
  8
3
  10
-7.062423
  20
66.851494
  0
POINT
  8
3
  10
-7.323022
  20
66.780128
  0
POINT
  8
3
  10
-7.578442
  20
66.716377
  0
POINT
  8
3
  10
-7.825956
  20
66.659912
  0
POINT
  8
3
  10
-8.062840
  20
66.610405
  0
POINT
  8
3
  10
-8.286364
  20
66.567520
  0
POINT
  8
3
  10
-8.493803
  20
66.530922
  0
POINT
  8
3
  10
-8.682430
  20
66.500282
  0
POINT
  8
3
  10
-8.849519
  20
66.475266
  0
POINT
  8
3
  10
-8.992341
  20
66.455544
  0
POINT
  8
3
  10
-9.108172
  20
66.440781
  0
POINT
  8
3
  10
-9.194285
  20
66.430649
  0
POINT
  8
3
  10
-9.247952
  20
66.424812
  0
LINE
  8
7
  10
-9.266447
  20
51.554081
  11
-9.266447
  21
58.640694
  0
POLYLINE
  8
8
  66
1
  70
0
  250
1
  0
VERTEX
  8
8
  10
-21.680805
  20
41.906036
  0
VERTEX
  8
8
  10
3.116753
  20
41.906010
  0
SEQEND
  0
POINT
  8
2
  10
-21.680805
  20
41.906036
  0
POINT
  8
2
  10
3.116753
  20
41.906010
  0
POLYLINE
  8
8
  66
1
  70
0
  250
0
  0
VERTEX
  8
8
  10
-9.266447
  20
40.894371
  0
VERTEX
  8
8
  10
3.116753
  20
40.894371
  0
SEQEND
  0
POINT
  8
2
  10
-9.266447
  20
40.894371
  0
POINT
  8
2
  10
3.116753
  20
40.894371
  0
POLYLINE
  8
8
  66
1
  70
0
  250
0
  0
VERTEX
  8
8
  10
-9.266447
  20
40.894371
  0
VERTEX
  8
8
  10
-21.649647
  20
40.894371
  0
SEQEND
  0
POINT
  8
2
  10
-9.266447
  20
40.894371
  0
POINT
  8
2
  10
-21.649647
  20
40.894371
  0
POLYLINE
  8
8
  66
1
  70
0
  250
0
  0
VERTEX
  8
8
  10
-9.266447
  20
40.106968
  0
VERTEX
  8
8
  10
3.116753
  20
40.106968
  0
SEQEND
  0
POINT
  8
2
  10
-9.266447
  20
40.106968
  0
POINT
  8
2
  10
3.116753
  20
40.106968
  0
ENDBLK
  0
BLOCK
  8
0
  2
Pattern_636969_M
  70
64
  10
0
  20
0
  0
TEXT
  8
1
  10
17.373970
  20
54.854031
  50
0.000000
  51
0.000000
  71
0.000000
  1
PIECE NAME: Pattern_636969
  7
STANDARD
  0
TEXT
  8
1
  10
17.373970
  20
49.854031
  50
0.000000
  51
0.000000
  71
0.000000
  1
SIZE: M
  7
STANDARD
  0
TEXT
  8
1
  10
17.373970
  20
39.854031
  50
0.000000
  51
0.000000
  71
0.000000
  1
QUANTITY: 1
  7
STANDARD
  0
TEXT
  8
1
  10
17.373970
  20
39.854031
  40
0.250000
  50
0.000000
  1
ROTATION: 0
  7
STANDARD
  0
POLYLINE
  8
1
  66
1
  70
1
  250
2
  0
VERTEX
  8
1
  10
17.470102
  20
68.006607
  0
VERTEX
  8
1
  10
17.465443
  20
68.006973
  0
VERTEX
  8
1
  10
17.441072
  20
68.008209
  0
VERTEX
  8
1
  10
17.398079
  20
68.010437
  0
VERTEX
  8
1
  10
17.337542
  20
68.013786
  0
VERTEX
  8
1
  10
17.260544
  20
68.018387
  0
VERTEX
  8
1
  10
17.168169
  20
68.024376
  0
VERTEX
  8
1
  10
17.061502
  20
68.031853
  0
VERTEX
  8
1
  10
16.941624
  20
68.040977
  0
VERTEX
  8
1
  10
16.809616
  20
68.051857
  0
VERTEX
  8
1
  10
16.666563
  20
68.064621
  0
VERTEX
  8
1
  10
16.513546
  20
68.079407
  0
VERTEX
  8
1
  10
16.351652
  20
68.096329
  0
VERTEX
  8
1
  10
16.181959
  20
68.115524
  0
VERTEX
  8
1
  10
16.005554
  20
68.137115
  0
VERTEX
  8
1
  10
15.823517
  20
68.161232
  0
VERTEX
  8
1
  10
15.636931
  20
68.187996
  0
VERTEX
  8
1
  10
15.446881
  20
68.217545
  0
VERTEX
  8
1
  10
15.254448
  20
68.250000
  0
VERTEX
  8
1
  10
15.060715
  20
68.285484
  0
VERTEX
  8
1
  10
14.866766
  20
68.324135
  0
VERTEX
  8
1
  10
14.673683
  20
68.366074
  0
VERTEX
  8
1
  10
14.482548
  20
68.411423
  0
VERTEX
  8
1
  10
14.294445
  20
68.460320
  0
VERTEX
  8
1
  10
14.110457
  20
68.512886
  0
VERTEX
  8
1
  10
13.931667
  20
68.569252
  0
VERTEX
  8
1
  10
13.759157
  20
68.629547
  0
VERTEX
  8
1
  10
13.594010
  20
68.693893
  0
VERTEX
  8
1
  10
13.437310
  20
68.762413
  0
VERTEX
  8
1
  10
13.290138
  20
68.835243
  0
VERTEX
  8
1
  10
13.290138
  20
68.835243
  0
VERTEX
  8
1
  10
13.238323
  20
68.863060
  0
VERTEX
  8
1
  10
13.187990
  20
68.891617
  0
VERTEX
  8
1
  10
13.139204
  20
68.920914
  0
VERTEX
  8
1
  10
13.092035
  20
68.950951
  0
VERTEX
  8
1
  10
13.046550
  20
68.981743
  0
VERTEX
  8
1
  10
13.002817
  20
69.013275
  0
VERTEX
  8
1
  10
12.960903
  20
69.045563
  0
VERTEX
  8
1
  10
12.920877
  20
69.078606
  0
VERTEX
  8
1
  10
12.882805
  20
69.112396
  0
VERTEX
  8
1
  10
12.846755
  20
69.146942
  0
VERTEX
  8
1
  10
12.812796
  20
69.182243
  0
VERTEX
  8
1
  10
12.780994
  20
69.218307
  0
VERTEX
  8
1
  10
12.751418
  20
69.255127
  0
VERTEX
  8
1
  10
12.724136
  20
69.292709
  0
VERTEX
  8
1
  10
12.699213
  20
69.331062
  0
VERTEX
  8
1
  10
12.676720
  20
69.370171
  0
VERTEX
  8
1
  10
12.656723
  20
69.410049
  0
VERTEX
  8
1
  10
12.639289
  20
69.450699
  0
VERTEX
  8
1
  10
12.624487
  20
69.492119
  0
VERTEX
  8
1
  10
12.624487
  20
69.492119
  0
VERTEX
  8
1
  10
6.659507
  20
66.378403
  0
VERTEX
  8
1
  10
6.667330
  20
66.348679
  0
VERTEX
  8
1
  10
6.689474
  20
66.262131
  0
VERTEX
  8
1
  10
6.723955
  20
66.122711
  0
VERTEX
  8
1
  10
6.768787
  20
65.934364
  0
VERTEX
  8
1
  10
6.821983
  20
65.701050
  0
VERTEX
  8
1
  10
6.881554
  20
65.426712
  0
VERTEX
  8
1
  10
6.945518
  20
65.115295
  0
VERTEX
  8
1
  10
7.011886
  20
64.770752
  0
VERTEX
  8
1
  10
7.078671
  20
64.397034
  0
VERTEX
  8
1
  10
7.143890
  20
63.998096
  0
VERTEX
  8
1
  10
7.205558
  20
63.577873
  0
VERTEX
  8
1
  10
7.261681
  20
63.140331
  0
VERTEX
  8
1
  10
7.310282
  20
62.689407
  0
VERTEX
  8
1
  10
7.349371
  20
62.229050
  0
VERTEX
  8
1
  10
7.376960
  20
61.763222
  0
VERTEX
  8
1
  10
7.391065
  20
61.295856
  0
VERTEX
  8
1
  10
7.389700
  20
60.830914
  0
VERTEX
  8
1
  10
7.370877
  20
60.372337
  0
VERTEX
  8
1
  10
7.332611
  20
59.924084
  0
VERTEX
  8
1
  10
7.272917
  20
59.490093
  0
VERTEX
  8
1
  10
7.189807
  20
59.074322
  0
VERTEX
  8
1
  10
7.081294
  20
58.680714
  0
VERTEX
  8
1
  10
6.945395
  20
58.313225
  0
VERTEX
  8
1
  10
6.780120
  20
57.975796
  0
VERTEX
  8
1
  10
6.583486
  20
57.672386
  0
VERTEX
  8
1
  10
6.353505
  20
57.406937
  0
VERTEX
  8
1
  10
6.088193
  20
57.183403
  0
VERTEX
  8
1
  10
5.785561
  20
57.005733
  0
VERTEX
  8
1
  10
5.443623
  20
56.877872
  0
VERTEX
  8
1
  10
5.443623
  20
56.877872
  0
VERTEX
  8
1
  10
5.365785
  20
41.121609
  0
VERTEX
  8
1
  10
29.308205
  20
41.003330
  0
VERTEX
  8
1
  10
29.386044
  20
56.759594
  0
VERTEX
  8
1
  10
29.045385
  20
56.890823
  0
VERTEX
  8
1
  10
28.744526
  20
57.071480
  0
VERTEX
  8
1
  10
28.481430
  20
57.297623
  0
VERTEX
  8
1
  10
28.254086
  20
57.565331
  0
VERTEX
  8
1
  10
28.060459
  20
57.870670
  0
VERTEX
  8
1
  10
27.898529
  20
58.209713
  0
VERTEX
  8
1
  10
27.766266
  20
58.578526
  0
VERTEX
  8
1
  10
27.661646
  20
58.973186
  0
VERTEX
  8
1
  10
27.582647
  20
59.389759
  0
VERTEX
  8
1
  10
27.527245
  20
59.824318
  0
VERTEX
  8
1
  10
27.493408
  20
60.272930
  0
VERTEX
  8
1
  10
27.479118
  20
60.731670
  0
VERTEX
  8
1
  10
27.482346
  20
61.196602
  0
VERTEX
  8
1
  10
27.501068
  20
61.663803
  0
VERTEX
  8
1
  10
27.533258
  20
62.129341
  0
VERTEX
  8
1
  10
27.576893
  20
62.589287
  0
VERTEX
  8
1
  10
27.629948
  20
63.039711
  0
VERTEX
  8
1
  10
27.690392
  20
63.476677
  0
VERTEX
  8
1
  10
27.756207
  20
63.896271
  0
VERTEX
  8
1
  10
27.825363
  20
64.294548
  0
VERTEX
  8
1
  10
27.895842
  20
64.667580
  0
VERTEX
  8
1
  10
27.965611
  20
65.011452
  0
VERTEX
  8
1
  10
28.032646
  20
65.322220
  0
VERTEX
  8
1
  10
28.094925
  20
65.595955
  0
VERTEX
  8
1
  10
28.150425
  20
65.828735
  0
VERTEX
  8
1
  10
28.197113
  20
66.016624
  0
VERTEX
  8
1
  10
28.232969
  20
66.155701
  0
VERTEX
  8
1
  10
28.255968
  20
66.242027
  0
VERTEX
  8
1
  10
28.264084
  20
66.271675
  0
VERTEX
  8
1
  10
28.264084
  20
66.271675
  0
VERTEX
  8
1
  10
22.330160
  20
69.444176
  0
VERTEX
  8
1
  10
22.314949
  20
69.402901
  0
VERTEX
  8
1
  10
22.297115
  20
69.362427
  0
VERTEX
  8
1
  10
22.276726
  20
69.322746
  0
VERTEX
  8
1
  10
22.253845
  20
69.283859
  0
VERTEX
  8
1
  10
22.228546
  20
69.245758
  0
VERTEX
  8
1
  10
22.200893
  20
69.208450
  0
VERTEX
  8
1
  10
22.170954
  20
69.171913
  0
VERTEX
  8
1
  10
22.138798
  20
69.136169
  0
VERTEX
  8
1
  10
22.104492
  20
69.101212
  0
VERTEX
  8
1
  10
22.068104
  20
69.067017
  0
VERTEX
  8
1
  10
22.029699
  20
69.033607
  0
VERTEX
  8
1
  10
21.989347
  20
69.000961
  0
VERTEX
  8
1
  10
21.947117
  20
68.969093
  0
VERTEX
  8
1
  10
21.903074
  20
68.937988
  0
VERTEX
  8
1
  10
21.857288
  20
68.907654
  0
VERTEX
  8
1
  10
21.809824
  20
68.878082
  0
VERTEX
  8
1
  10
21.760752
  20
68.849266
  0
VERTEX
  8
1
  10
21.710138
  20
68.821205
  0
VERTEX
  8
1
  10
21.658051
  20
68.793907
  0
VERTEX
  8
1
  10
21.658051
  20
68.793907
  0
VERTEX
  8
1
  10
21.510166
  20
68.722534
  0
VERTEX
  8
1
  10
21.352797
  20
68.655563
  0
VERTEX
  8
1
  10
21.187023
  20
68.592850
  0
VERTEX
  8
1
  10
21.013926
  20
68.534271
  0
VERTEX
  8
1
  10
20.834587
  20
68.479668
  0
VERTEX
  8
1
  10
20.650089
  20
68.428925
  0
VERTEX
  8
1
  10
20.461512
  20
68.381889
  0
VERTEX
  8
1
  10
20.269939
  20
68.338425
  0
VERTEX
  8
1
  10
20.076450
  20
68.298393
  0
VERTEX
  8
1
  10
19.882130
  20
68.261665
  0
VERTEX
  8
1
  10
19.688055
  20
68.228096
  0
VERTEX
  8
1
  10
19.495312
  20
68.197548
  0
VERTEX
  8
1
  10
19.304977
  20
68.169876
  0
VERTEX
  8
1
  10
19.118137
  20
68.144951
  0
VERTEX
  8
1
  10
18.935871
  20
68.122635
  0
VERTEX
  8
1
  10
18.759260
  20
68.102791
  0
VERTEX
  8
1
  10
18.589386
  20
68.085274
  0
VERTEX
  8
1
  10
18.427332
  20
68.069954
  0
VERTEX
  8
1
  10
18.274178
  20
68.056679
  0
VERTEX
  8
1
  10
18.131006
  20
68.045326
  0
VERTEX
  8
1
  10
17.998898
  20
68.035751
  0
VERTEX
  8
1
  10
17.878933
  20
68.027817
  0
VERTEX
  8
1
  10
17.772198
  20
68.021393
  0
VERTEX
  8
1
  10
17.679768
  20
68.016319
  0
VERTEX
  8
1
  10
17.602730
  20
68.012482
  0
VERTEX
  8
1
  10
17.542162
  20
68.009727
  0
VERTEX
  8
1
  10
17.499147
  20
68.007919
  0
VERTEX
  8
1
  10
17.474768
  20
68.006927
  0
VERTEX
  8
1
  10
17.470102
  20
68.006607
  0
SEQEND
  0
POINT
  8
2
  10
17.470102
  20
68.006607
  0
POINT
  8
2
  10
13.290138
  20
68.835243
  0
POINT
  8
2
  10
12.624487
  20
69.492119
  0
POINT
  8
2
  10
6.659507
  20
66.378403
  0
POINT
  8
2
  10
5.443623
  20
56.877872
  0
POINT
  8
2
  10
5.365785
  20
41.121609
  0
POINT
  8
2
  10
29.308205
  20
41.003330
  0
POINT
  8
2
  10
29.386044
  20
56.759594
  0
POINT
  8
2
  10
28.264084
  20
66.271675
  0
POINT
  8
2
  10
22.330160
  20
69.444176
  0
POINT
  8
2
  10
21.658051
  20
68.793907
  0
POINT
  8
3
  10
17.465443
  20
68.006973
  0
POINT
  8
3
  10
17.441072
  20
68.008209
  0
POINT
  8
3
  10
17.398079
  20
68.010437
  0
POINT
  8
3
  10
17.337542
  20
68.013786
  0
POINT
  8
3
  10
17.260544
  20
68.018387
  0
POINT
  8
3
  10
17.168169
  20
68.024376
  0
POINT
  8
3
  10
17.061502
  20
68.031853
  0
POINT
  8
3
  10
16.941624
  20
68.040977
  0
POINT
  8
3
  10
16.809616
  20
68.051857
  0
POINT
  8
3
  10
16.666563
  20
68.064621
  0
POINT
  8
3
  10
16.513546
  20
68.079407
  0
POINT
  8
3
  10
16.351652
  20
68.096329
  0
POINT
  8
3
  10
16.181959
  20
68.115524
  0
POINT
  8
3
  10
16.005554
  20
68.137115
  0
POINT
  8
3
  10
15.823517
  20
68.161232
  0
POINT
  8
3
  10
15.636931
  20
68.187996
  0
POINT
  8
3
  10
15.446881
  20
68.217545
  0
POINT
  8
3
  10
15.254448
  20
68.250000
  0
POINT
  8
3
  10
15.060715
  20
68.285484
  0
POINT
  8
3
  10
14.866766
  20
68.324135
  0
POINT
  8
3
  10
14.673683
  20
68.366074
  0
POINT
  8
3
  10
14.482548
  20
68.411423
  0
POINT
  8
3
  10
14.294445
  20
68.460320
  0
POINT
  8
3
  10
14.110457
  20
68.512886
  0
POINT
  8
3
  10
13.931667
  20
68.569252
  0
POINT
  8
3
  10
13.759157
  20
68.629547
  0
POINT
  8
3
  10
13.594010
  20
68.693893
  0
POINT
  8
3
  10
13.437310
  20
68.762413
  0
POINT
  8
3
  10
13.238323
  20
68.863060
  0
POINT
  8
3
  10
13.187990
  20
68.891617
  0
POINT
  8
3
  10
13.139204
  20
68.920914
  0
POINT
  8
3
  10
13.092035
  20
68.950951
  0
POINT
  8
3
  10
13.046550
  20
68.981743
  0
POINT
  8
3
  10
13.002817
  20
69.013275
  0
POINT
  8
3
  10
12.960903
  20
69.045563
  0
POINT
  8
3
  10
12.920877
  20
69.078606
  0
POINT
  8
3
  10
12.882805
  20
69.112396
  0
POINT
  8
3
  10
12.846755
  20
69.146942
  0
POINT
  8
3
  10
12.812796
  20
69.182243
  0
POINT
  8
3
  10
12.780994
  20
69.218307
  0
POINT
  8
3
  10
12.751418
  20
69.255127
  0
POINT
  8
3
  10
12.724136
  20
69.292709
  0
POINT
  8
3
  10
12.699213
  20
69.331062
  0
POINT
  8
3
  10
12.676720
  20
69.370171
  0
POINT
  8
3
  10
12.656723
  20
69.410049
  0
POINT
  8
3
  10
12.639289
  20
69.450699
  0
POINT
  8
3
  10
6.667330
  20
66.348679
  0
POINT
  8
3
  10
6.689474
  20
66.262131
  0
POINT
  8
3
  10
6.723955
  20
66.122711
  0
POINT
  8
3
  10
6.768787
  20
65.934364
  0
POINT
  8
3
  10
6.821983
  20
65.701050
  0
POINT
  8
3
  10
6.881554
  20
65.426712
  0
POINT
  8
3
  10
6.945518
  20
65.115295
  0
POINT
  8
3
  10
7.011886
  20
64.770752
  0
POINT
  8
3
  10
7.078671
  20
64.397034
  0
POINT
  8
3
  10
7.143890
  20
63.998096
  0
POINT
  8
3
  10
7.205558
  20
63.577873
  0
POINT
  8
3
  10
7.261681
  20
63.140331
  0
POINT
  8
3
  10
7.310282
  20
62.689407
  0
POINT
  8
3
  10
7.349371
  20
62.229050
  0
POINT
  8
3
  10
7.376960
  20
61.763222
  0
POINT
  8
3
  10
7.391065
  20
61.295856
  0
POINT
  8
3
  10
7.389700
  20
60.830914
  0
POINT
  8
3
  10
7.370877
  20
60.372337
  0
POINT
  8
3
  10
7.332611
  20
59.924084
  0
POINT
  8
3
  10
7.272917
  20
59.490093
  0
POINT
  8
3
  10
7.189807
  20
59.074322
  0
POINT
  8
3
  10
7.081294
  20
58.680714
  0
POINT
  8
3
  10
6.945395
  20
58.313225
  0
POINT
  8
3
  10
6.780120
  20
57.975796
  0
POINT
  8
3
  10
6.583486
  20
57.672386
  0
POINT
  8
3
  10
6.353505
  20
57.406937
  0
POINT
  8
3
  10
6.088193
  20
57.183403
  0
POINT
  8
3
  10
5.785561
  20
57.005733
  0
POINT
  8
3
  10
29.045385
  20
56.890823
  0
POINT
  8
3
  10
28.744526
  20
57.071480
  0
POINT
  8
3
  10
28.481430
  20
57.297623
  0
POINT
  8
3
  10
28.254086
  20
57.565331
  0
POINT
  8
3
  10
28.060459
  20
57.870670
  0
POINT
  8
3
  10
27.898529
  20
58.209713
  0
POINT
  8
3
  10
27.766266
  20
58.578526
  0
POINT
  8
3
  10
27.661646
  20
58.973186
  0
POINT
  8
3
  10
27.582647
  20
59.389759
  0
POINT
  8
3
  10
27.527245
  20
59.824318
  0
POINT
  8
3
  10
27.493408
  20
60.272930
  0
POINT
  8
3
  10
27.479118
  20
60.731670
  0
POINT
  8
3
  10
27.482346
  20
61.196602
  0
POINT
  8
3
  10
27.501068
  20
61.663803
  0
POINT
  8
3
  10
27.533258
  20
62.129341
  0
POINT
  8
3
  10
27.576893
  20
62.589287
  0
POINT
  8
3
  10
27.629948
  20
63.039711
  0
POINT
  8
3
  10
27.690392
  20
63.476677
  0
POINT
  8
3
  10
27.756207
  20
63.896271
  0
POINT
  8
3
  10
27.825363
  20
64.294548
  0
POINT
  8
3
  10
27.895842
  20
64.667580
  0
POINT
  8
3
  10
27.965611
  20
65.011452
  0
POINT
  8
3
  10
28.032646
  20
65.322220
  0
POINT
  8
3
  10
28.094925
  20
65.595955
  0
POINT
  8
3
  10
28.150425
  20
65.828735
  0
POINT
  8
3
  10
28.197113
  20
66.016624
  0
POINT
  8
3
  10
28.232969
  20
66.155701
  0
POINT
  8
3
  10
28.255968
  20
66.242027
  0
POINT
  8
3
  10
22.314949
  20
69.402901
  0
POINT
  8
3
  10
22.297115
  20
69.362427
  0
POINT
  8
3
  10
22.276726
  20
69.322746
  0
POINT
  8
3
  10
22.253845
  20
69.283859
  0
POINT
  8
3
  10
22.228546
  20
69.245758
  0
POINT
  8
3
  10
22.200893
  20
69.208450
  0
POINT
  8
3
  10
22.170954
  20
69.171913
  0
POINT
  8
3
  10
22.138798
  20
69.136169
  0
POINT
  8
3
  10
22.104492
  20
69.101212
  0
POINT
  8
3
  10
22.068104
  20
69.067017
  0
POINT
  8
3
  10
22.029699
  20
69.033607
  0
POINT
  8
3
  10
21.989347
  20
69.000961
  0
POINT
  8
3
  10
21.947117
  20
68.969093
  0
POINT
  8
3
  10
21.903074
  20
68.937988
  0
POINT
  8
3
  10
21.857288
  20
68.907654
  0
POINT
  8
3
  10
21.809824
  20
68.878082
  0
POINT
  8
3
  10
21.760752
  20
68.849266
  0
POINT
  8
3
  10
21.710138
  20
68.821205
  0
POINT
  8
3
  10
21.510166
  20
68.722534
  0
POINT
  8
3
  10
21.352797
  20
68.655563
  0
POINT
  8
3
  10
21.187023
  20
68.592850
  0
POINT
  8
3
  10
21.013926
  20
68.534271
  0
POINT
  8
3
  10
20.834587
  20
68.479668
  0
POINT
  8
3
  10
20.650089
  20
68.428925
  0
POINT
  8
3
  10
20.461512
  20
68.381889
  0
POINT
  8
3
  10
20.269939
  20
68.338425
  0
POINT
  8
3
  10
20.076450
  20
68.298393
  0
POINT
  8
3
  10
19.882130
  20
68.261665
  0
POINT
  8
3
  10
19.688055
  20
68.228096
  0
POINT
  8
3
  10
19.495312
  20
68.197548
  0
POINT
  8
3
  10
19.304977
  20
68.169876
  0
POINT
  8
3
  10
19.118137
  20
68.144951
  0
POINT
  8
3
  10
18.935871
  20
68.122635
  0
POINT
  8
3
  10
18.759260
  20
68.102791
  0
POINT
  8
3
  10
18.589386
  20
68.085274
  0
POINT
  8
3
  10
18.427332
  20
68.069954
  0
POINT
  8
3
  10
18.274178
  20
68.056679
  0
POINT
  8
3
  10
18.131006
  20
68.045326
  0
POINT
  8
3
  10
17.998898
  20
68.035751
  0
POINT
  8
3
  10
17.878933
  20
68.027817
  0
POINT
  8
3
  10
17.772198
  20
68.021393
  0
POINT
  8
3
  10
17.679768
  20
68.016319
  0
POINT
  8
3
  10
17.602730
  20
68.012482
  0
POINT
  8
3
  10
17.542162
  20
68.009727
  0
POINT
  8
3
  10
17.499147
  20
68.007919
  0
POINT
  8
3
  10
17.474768
  20
68.006927
  0
LINE
  8
7
  10
17.358410
  20
51.704460
  11
17.393419
  21
58.790989
  0
POLYLINE
  8
8
  66
1
  70
0
  250
1
  0
VERTEX
  8
8
  10
5.370349
  20
42.044975
  0
VERTEX
  8
8
  10
29.313347
  20
42.044952
  0
SEQEND
  0
POINT
  8
2
  10
5.370349
  20
42.044975
  0
POINT
  8
2
  10
29.313347
  20
42.044952
  0
POLYLINE
  8
8
  66
1
  70
0
  250
0
  0
VERTEX
  8
8
  10
17.336996
  20
41.062466
  0
VERTEX
  8
8
  10
29.308205
  20
41.003330
  0
SEQEND
  0
POINT
  8
2
  10
17.336996
  20
41.062466
  0
POINT
  8
2
  10
29.308205
  20
41.003330
  0
POLYLINE
  8
8
  66
1
  70
0
  250
0
  0
VERTEX
  8
8
  10
17.336996
  20
41.062466
  0
VERTEX
  8
8
  10
5.365786
  20
41.121609
  0
SEQEND
  0
POINT
  8
2
  10
17.336996
  20
41.062466
  0
POINT
  8
2
  10
5.365786
  20
41.121609
  0
POLYLINE
  8
8
  66
1
  70
0
  250
0
  0
VERTEX
  8
8
  10
17.333105
  20
40.275074
  0
VERTEX
  8
8
  10
29.304314
  20
40.215939
  0
SEQEND
  0
POINT
  8
2
  10
17.333105
  20
40.275074
  0
POINT
  8
2
  10
29.304314
  20
40.215939
  0
POLYLINE
  8
8
  66
1
  70
0
  250
0
  0
VERTEX
  8
8
  10
17.333107
  20
40.275074
  0
VERTEX
  8
8
  10
5.361897
  20
40.334217
  0
SEQEND
  0
POINT
  8
2
  10
17.333107
  20
40.275074
  0
POINT
  8
2
  10
5.361897
  20
40.334217
  0
ENDBLK
  0
BLOCK
  8
0
  2
Pattern_1621764_M
  70
64
  10
0
  20
0
  0
TEXT
  8
1
  10
-35.188457
  20
57.836712
  50
0.000000
  51
0.000000
  71
0.000000
  1
PIECE NAME: Pattern_1621764
  7
STANDARD
  0
TEXT
  8
1
  10
-35.188457
  20
52.836712
  50
0.000000
  51
0.000000
  71
0.000000
  1
SIZE: M
  7
STANDARD
  0
TEXT
  8
1
  10
-35.188457
  20
42.836712
  50
0.000000
  51
0.000000
  71
0.000000
  1
QUANTITY: 1
  7
STANDARD
  0
TEXT
  8
1
  10
-35.188457
  20
42.836712
  40
0.250000
  50
0.000000
  1
ROTATION: 0
  7
STANDARD
  0
POLYLINE
  8
1
  66
1
  70
1
  250
2
  0
VERTEX
  8
1
  10
-26.706415
  20
53.087074
  0
VERTEX
  8
1
  10
-25.565569
  20
58.771221
  0
VERTEX
  8
1
  10
-25.632187
  20
58.759724
  0
VERTEX
  8
1
  10
-25.708006
  20
58.754013
  0
VERTEX
  8
1
  10
-25.792702
  20
58.754009
  0
VERTEX
  8
1
  10
-25.885948
  20
58.759647
  0
VERTEX
  8
1
  10
-25.987423
  20
58.770855
  0
VERTEX
  8
1
  10
-26.096798
  20
58.787556
  0
VERTEX
  8
1
  10
-26.213753
  20
58.809677
  0
VERTEX
  8
1
  10
-26.337959
  20
58.837147
  0
VERTEX
  8
1
  10
-26.469091
  20
58.869892
  0
VERTEX
  8
1
  10
-26.606829
  20
58.907845
  0
VERTEX
  8
1
  10
-26.750845
  20
58.950924
  0
VERTEX
  8
1
  10
-26.900814
  20
58.999065
  0
VERTEX
  8
1
  10
-27.056412
  20
59.052189
  0
VERTEX
  8
1
  10
-27.217314
  20
59.110226
  0
VERTEX
  8
1
  10
-27.383196
  20
59.173103
  0
VERTEX
  8
1
  10
-27.553732
  20
59.240753
  0
VERTEX
  8
1
  10
-27.728600
  20
59.313091
  0
VERTEX
  8
1
  10
-27.907473
  20
59.390057
  0
VERTEX
  8
1
  10
-28.090025
  20
59.471569
  0
VERTEX
  8
1
  10
-28.275934
  20
59.557560
  0
VERTEX
  8
1
  10
-28.464874
  20
59.647953
  0
VERTEX
  8
1
  10
-28.656521
  20
59.742680
  0
VERTEX
  8
1
  10
-28.850548
  20
59.841663
  0
VERTEX
  8
1
  10
-29.046635
  20
59.944836
  0
VERTEX
  8
1
  10
-29.244452
  20
60.052120
  0
VERTEX
  8
1
  10
-29.443676
  20
60.163448
  0
VERTEX
  8
1
  10
-29.643984
  20
60.278744
  0
VERTEX
  8
1
  10
-29.845051
  20
60.397934
  0
VERTEX
  8
1
  10
-30.046549
  20
60.520947
  0
VERTEX
  8
1
  10
-30.046549
  20
60.520947
  0
VERTEX
  8
1
  10
-30.286861
  20
60.628864
  0
VERTEX
  8
1
  10
-30.517897
  20
60.736473
  0
VERTEX
  8
1
  10
-30.740238
  20
60.843529
  0
VERTEX
  8
1
  10
-30.954470
  20
60.949780
  0
VERTEX
  8
1
  10
-31.161179
  20
61.054985
  0
VERTEX
  8
1
  10
-31.360949
  20
61.158901
  0
VERTEX
  8
1
  10
-31.554361
  20
61.261276
  0
VERTEX
  8
1
  10
-31.742004
  20
61.361866
  0
VERTEX
  8
1
  10
-31.924461
  20
61.460423
  0
VERTEX
  8
1
  10
-32.102314
  20
61.556702
  0
VERTEX
  8
1
  10
-32.276154
  20
61.650459
  0
VERTEX
  8
1
  10
-32.446556
  20
61.741447
  0
VERTEX
  8
1
  10
-32.614113
  20
61.829414
  0
VERTEX
  8
1
  10
-32.779404
  20
61.914120
  0
VERTEX
  8
1
  10
-32.943020
  20
61.995319
  0
VERTEX
  8
1
  10
-33.105537
  20
62.072762
  0
VERTEX
  8
1
  10
-33.267548
  20
62.146202
  0
VERTEX
  8
1
  10
-33.429626
  20
62.215397
  0
VERTEX
  8
1
  10
-33.592369
  20
62.280098
  0
VERTEX
  8
1
  10
-33.756351
  20
62.340061
  0
VERTEX
  8
1
  10
-33.922165
  20
62.395035
  0
VERTEX
  8
1
  10
-34.090389
  20
62.444778
  0
VERTEX
  8
1
  10
-34.261608
  20
62.489044
  0
VERTEX
  8
1
  10
-34.436409
  20
62.527584
  0
VERTEX
  8
1
  10
-34.615379
  20
62.560154
  0
VERTEX
  8
1
  10
-34.799095
  20
62.586506
  0
VERTEX
  8
1
  10
-34.988148
  20
62.606396
  0
VERTEX
  8
1
  10
-35.183117
  20
62.619576
  0
VERTEX
  8
1
  10
-35.384594
  20
62.625801
  0
VERTEX
  8
1
  10
-35.384594
  20
62.625801
  0
VERTEX
  8
1
  10
-35.585701
  20
62.619156
  0
VERTEX
  8
1
  10
-35.779568
  20
62.604782
  0
VERTEX
  8
1
  10
-35.966782
  20
62.583012
  0
VERTEX
  8
1
  10
-36.147926
  20
62.554184
  0
VERTEX
  8
1
  10
-36.323586
  20
62.518631
  0
VERTEX
  8
1
  10
-36.494347
  20
62.476692
  0
VERTEX
  8
1
  10
-36.660786
  20
62.428703
  0
VERTEX
  8
1
  10
-36.823494
  20
62.375000
  0
VERTEX
  8
1
  10
-36.983063
  20
62.315922
  0
VERTEX
  8
1
  10
-37.140060
  20
62.251797
  0
VERTEX
  8
1
  10
-37.295086
  20
62.182968
  0
VERTEX
  8
1
  10
-37.448715
  20
62.109772
  0
VERTEX
  8
1
  10
-37.601536
  20
62.032539
  0
VERTEX
  8
1
  10
-37.754131
  20
61.951614
  0
VERTEX
  8
1
  10
-37.907085
  20
61.867325
  0
VERTEX
  8
1
  10
-38.060989
  20
61.780014
  0
VERTEX
  8
1
  10
-38.216415
  20
61.690014
  0
VERTEX
  8
1
  10
-38.373962
  20
61.597660
  0
VERTEX
  8
1
  10
-38.534203
  20
61.503292
  0
VERTEX
  8
1
  10
-38.697727
  20
61.407246
  0
VERTEX
  8
1
  10
-38.865120
  20
61.309856
  0
VERTEX
  8
1
  10
-39.036961
  20
61.211456
  0
VERTEX
  8
1
  10
-39.213840
  20
61.112389
  0
VERTEX
  8
1
  10
-39.396343
  20
61.012989
  0
VERTEX
  8
1
  10
-39.585045
  20
60.913589
  0
VERTEX
  8
1
  10
-39.780544
  20
60.814526
  0
VERTEX
  8
1
  10
-39.983414
  20
60.716137
  0
VERTEX
  8
1
  10
-40.194241
  20
60.618759
  0
VERTEX
  8
1
  10
-40.413612
  20
60.522728
  0
VERTEX
  8
1
  10
-40.413612
  20
60.522728
  0
VERTEX
  8
1
  10
-40.635284
  20
60.372513
  0
VERTEX
  8
1
  10
-40.853104
  20
60.229561
  0
VERTEX
  8
1
  10
-41.066933
  20
60.093754
  0
VERTEX
  8
1
  10
-41.276649
  20
59.964996
  0
VERTEX
  8
1
  10
-41.482132
  20
59.843170
  0
VERTEX
  8
1
  10
-41.683247
  20
59.728176
  0
VERTEX
  8
1
  10
-41.879864
  20
59.619904
  0
VERTEX
  8
1
  10
-42.071865
  20
59.518242
  0
VERTEX
  8
1
  10
-42.259117
  20
59.423084
  0
VERTEX
  8
1
  10
-42.441494
  20
59.334324
  0
VERTEX
  8
1
  10
-42.618870
  20
59.251850
  0
VERTEX
  8
1
  10
-42.791119
  20
59.175560
  0
VERTEX
  8
1
  10
-42.958107
  20
59.105343
  0
VERTEX
  8
1
  10
-43.119713
  20
59.041088
  0
VERTEX
  8
1
  10
-43.275810
  20
58.982693
  0
VERTEX
  8
1
  10
-43.426270
  20
58.930046
  0
VERTEX
  8
1
  10
-43.570965
  20
58.883041
  0
VERTEX
  8
1
  10
-43.709766
  20
58.841572
  0
VERTEX
  8
1
  10
-43.842552
  20
58.805527
  0
VERTEX
  8
1
  10
-43.969185
  20
58.774796
  0
VERTEX
  8
1
  10
-44.089550
  20
58.749279
  0
VERTEX
  8
1
  10
-44.203514
  20
58.728863
  0
VERTEX
  8
1
  10
-44.310944
  20
58.713440
  0
VERTEX
  8
1
  10
-44.411728
  20
58.702908
  0
VERTEX
  8
1
  10
-44.505722
  20
58.697147
  0
VERTEX
  8
1
  10
-44.592812
  20
58.696064
  0
VERTEX
  8
1
  10
-44.672863
  20
58.699539
  0
VERTEX
  8
1
  10
-44.745750
  20
58.707470
  0
VERTEX
  8
1
  10
-44.811348
  20
58.719746
  0
VERTEX
  8
1
  10
-44.811348
  20
58.719746
  0
VERTEX
  8
1
  10
-43.138348
  20
53.047619
  0
SEQEND
  0
POINT
  8
2
  10
-26.706415
  20
53.087074
  0
POINT
  8
2
  10
-25.565569
  20
58.771221
  0
POINT
  8
2
  10
-30.046549
  20
60.520947
  0
POINT
  8
2
  10
-35.384594
  20
62.625801
  0
POINT
  8
2
  10
-40.413612
  20
60.522728
  0
POINT
  8
2
  10
-44.811348
  20
58.719746
  0
POINT
  8
2
  10
-43.138348
  20
53.047619
  0
POINT
  8
3
  10
-25.632187
  20
58.759724
  0
POINT
  8
3
  10
-25.708006
  20
58.754013
  0
POINT
  8
3
  10
-25.792702
  20
58.754009
  0
POINT
  8
3
  10
-25.885948
  20
58.759647
  0
POINT
  8
3
  10
-25.987423
  20
58.770855
  0
POINT
  8
3
  10
-26.096798
  20
58.787556
  0
POINT
  8
3
  10
-26.213753
  20
58.809677
  0
POINT
  8
3
  10
-26.337959
  20
58.837147
  0
POINT
  8
3
  10
-26.469091
  20
58.869892
  0
POINT
  8
3
  10
-26.606829
  20
58.907845
  0
POINT
  8
3
  10
-26.750845
  20
58.950924
  0
POINT
  8
3
  10
-26.900814
  20
58.999065
  0
POINT
  8
3
  10
-27.056412
  20
59.052189
  0
POINT
  8
3
  10
-27.217314
  20
59.110226
  0
POINT
  8
3
  10
-27.383196
  20
59.173103
  0
POINT
  8
3
  10
-27.553732
  20
59.240753
  0
POINT
  8
3
  10
-27.728600
  20
59.313091
  0
POINT
  8
3
  10
-27.907473
  20
59.390057
  0
POINT
  8
3
  10
-28.090025
  20
59.471569
  0
POINT
  8
3
  10
-28.275934
  20
59.557560
  0
POINT
  8
3
  10
-28.464874
  20
59.647953
  0
POINT
  8
3
  10
-28.656521
  20
59.742680
  0
POINT
  8
3
  10
-28.850548
  20
59.841663
  0
POINT
  8
3
  10
-29.046635
  20
59.944836
  0
POINT
  8
3
  10
-29.244452
  20
60.052120
  0
POINT
  8
3
  10
-29.443676
  20
60.163448
  0
POINT
  8
3
  10
-29.643984
  20
60.278744
  0
POINT
  8
3
  10
-29.845051
  20
60.397934
  0
POINT
  8
3
  10
-30.286861
  20
60.628864
  0
POINT
  8
3
  10
-30.517897
  20
60.736473
  0
POINT
  8
3
  10
-30.740238
  20
60.843529
  0
POINT
  8
3
  10
-30.954470
  20
60.949780
  0
POINT
  8
3
  10
-31.161179
  20
61.054985
  0
POINT
  8
3
  10
-31.360949
  20
61.158901
  0
POINT
  8
3
  10
-31.554361
  20
61.261276
  0
POINT
  8
3
  10
-31.742004
  20
61.361866
  0
POINT
  8
3
  10
-31.924461
  20
61.460423
  0
POINT
  8
3
  10
-32.102314
  20
61.556702
  0
POINT
  8
3
  10
-32.276154
  20
61.650459
  0
POINT
  8
3
  10
-32.446556
  20
61.741447
  0
POINT
  8
3
  10
-32.614113
  20
61.829414
  0
POINT
  8
3
  10
-32.779404
  20
61.914120
  0
POINT
  8
3
  10
-32.943020
  20
61.995319
  0
POINT
  8
3
  10
-33.105537
  20
62.072762
  0
POINT
  8
3
  10
-33.267548
  20
62.146202
  0
POINT
  8
3
  10
-33.429626
  20
62.215397
  0
POINT
  8
3
  10
-33.592369
  20
62.280098
  0
POINT
  8
3
  10
-33.756351
  20
62.340061
  0
POINT
  8
3
  10
-33.922165
  20
62.395035
  0
POINT
  8
3
  10
-34.090389
  20
62.444778
  0
POINT
  8
3
  10
-34.261608
  20
62.489044
  0
POINT
  8
3
  10
-34.436409
  20
62.527584
  0
POINT
  8
3
  10
-34.615379
  20
62.560154
  0
POINT
  8
3
  10
-34.799095
  20
62.586506
  0
POINT
  8
3
  10
-34.988148
  20
62.606396
  0
POINT
  8
3
  10
-35.183117
  20
62.619576
  0
POINT
  8
3
  10
-35.585701
  20
62.619156
  0
POINT
  8
3
  10
-35.779568
  20
62.604782
  0
POINT
  8
3
  10
-35.966782
  20
62.583012
  0
POINT
  8
3
  10
-36.147926
  20
62.554184
  0
POINT
  8
3
  10
-36.323586
  20
62.518631
  0
POINT
  8
3
  10
-36.494347
  20
62.476692
  0
POINT
  8
3
  10
-36.660786
  20
62.428703
  0
POINT
  8
3
  10
-36.823494
  20
62.375000
  0
POINT
  8
3
  10
-36.983063
  20
62.315922
  0
POINT
  8
3
  10
-37.140060
  20
62.251797
  0
POINT
  8
3
  10
-37.295086
  20
62.182968
  0
POINT
  8
3
  10
-37.448715
  20
62.109772
  0
POINT
  8
3
  10
-37.601536
  20
62.032539
  0
POINT
  8
3
  10
-37.754131
  20
61.951614
  0
POINT
  8
3
  10
-37.907085
  20
61.867325
  0
POINT
  8
3
  10
-38.060989
  20
61.780014
  0
POINT
  8
3
  10
-38.216415
  20
61.690014
  0
POINT
  8
3
  10
-38.373962
  20
61.597660
  0
POINT
  8
3
  10
-38.534203
  20
61.503292
  0
POINT
  8
3
  10
-38.697727
  20
61.407246
  0
POINT
  8
3
  10
-38.865120
  20
61.309856
  0
POINT
  8
3
  10
-39.036961
  20
61.211456
  0
POINT
  8
3
  10
-39.213840
  20
61.112389
  0
POINT
  8
3
  10
-39.396343
  20
61.012989
  0
POINT
  8
3
  10
-39.585045
  20
60.913589
  0
POINT
  8
3
  10
-39.780544
  20
60.814526
  0
POINT
  8
3
  10
-39.983414
  20
60.716137
  0
POINT
  8
3
  10
-40.194241
  20
60.618759
  0
POINT
  8
3
  10
-40.635284
  20
60.372513
  0
POINT
  8
3
  10
-40.853104
  20
60.229561
  0
POINT
  8
3
  10
-41.066933
  20
60.093754
  0
POINT
  8
3
  10
-41.276649
  20
59.964996
  0
POINT
  8
3
  10
-41.482132
  20
59.843170
  0
POINT
  8
3
  10
-41.683247
  20
59.728176
  0
POINT
  8
3
  10
-41.879864
  20
59.619904
  0
POINT
  8
3
  10
-42.071865
  20
59.518242
  0
POINT
  8
3
  10
-42.259117
  20
59.423084
  0
POINT
  8
3
  10
-42.441494
  20
59.334324
  0
POINT
  8
3
  10
-42.618870
  20
59.251850
  0
POINT
  8
3
  10
-42.791119
  20
59.175560
  0
POINT
  8
3
  10
-42.958107
  20
59.105343
  0
POINT
  8
3
  10
-43.119713
  20
59.041088
  0
POINT
  8
3
  10
-43.275810
  20
58.982693
  0
POINT
  8
3
  10
-43.426270
  20
58.930046
  0
POINT
  8
3
  10
-43.570965
  20
58.883041
  0
POINT
  8
3
  10
-43.709766
  20
58.841572
  0
POINT
  8
3
  10
-43.842552
  20
58.805527
  0
POINT
  8
3
  10
-43.969185
  20
58.774796
  0
POINT
  8
3
  10
-44.089550
  20
58.749279
  0
POINT
  8
3
  10
-44.203514
  20
58.728863
  0
POINT
  8
3
  10
-44.310944
  20
58.713440
  0
POINT
  8
3
  10
-44.411728
  20
58.702908
  0
POINT
  8
3
  10
-44.505722
  20
58.697147
  0
POINT
  8
3
  10
-44.592812
  20
58.696064
  0
POINT
  8
3
  10
-44.672863
  20
58.699539
  0
POINT
  8
3
  10
-44.745750
  20
58.707470
  0
LINE
  8
7
  10
-35.188457
  20
54.293404
  11
-35.188457
  21
61.380020
  0
POLYLINE
  8
8
  66
1
  70
0
  250
1
  0
VERTEX
  8
8
  10
-25.909399
  20
53.741169
  0
VERTEX
  8
8
  10
-44.148094
  20
53.729092
  0
SEQEND
  0
POINT
  8
2
  10
-25.909399
  20
53.741169
  0
POINT
  8
2
  10
-44.148094
  20
53.729092
  0
ENDBLK
  0
BLOCK
  8
0
  2
Pattern_1621765_M
  70
64
  10
0
  20
0
  0
TEXT
  8
1
  10
-35.382698
  20
46.054150
  50
0.000000
  51
0.000000
  71
0.000000
  1
PIECE NAME: Pattern_1621765
  7
STANDARD
  0
TEXT
  8
1
  10
-35.382698
  20
41.054150
  50
0.000000
  51
0.000000
  71
0.000000
  1
SIZE: M
  7
STANDARD
  0
TEXT
  8
1
  10
-35.382698
  20
31.054150
  50
0.000000
  51
0.000000
  71
0.000000
  1
QUANTITY: 1
  7
STANDARD
  0
TEXT
  8
1
  10
-35.382698
  20
31.054150
  40
0.250000
  50
0.000000
  1
ROTATION: 0
  7
STANDARD
  0
POLYLINE
  8
1
  66
1
  70
1
  250
2
  0
VERTEX
  8
1
  10
-43.864742
  20
41.304516
  0
VERTEX
  8
1
  10
-45.005589
  20
46.988663
  0
VERTEX
  8
1
  10
-44.938969
  20
46.977165
  0
VERTEX
  8
1
  10
-44.863152
  20
46.971455
  0
VERTEX
  8
1
  10
-44.778458
  20
46.971451
  0
VERTEX
  8
1
  10
-44.685207
  20
46.977089
  0
VERTEX
  8
1
  10
-44.583733
  20
46.988297
  0
VERTEX
  8
1
  10
-44.474358
  20
47.004997
  0
VERTEX
  8
1
  10
-44.357407
  20
47.027119
  0
VERTEX
  8
1
  10
-44.233200
  20
47.054588
  0
VERTEX
  8
1
  10
-44.102066
  20
47.087334
  0
VERTEX
  8
1
  10
-43.964329
  20
47.125286
  0
VERTEX
  8
1
  10
-43.820313
  20
47.168365
  0
VERTEX
  8
1
  10
-43.670345
  20
47.216507
  0
VERTEX
  8
1
  10
-43.514748
  20
47.269630
  0
VERTEX
  8
1
  10
-43.353844
  20
47.327667
  0
VERTEX
  8
1
  10
-43.187962
  20
47.390545
  0
VERTEX
  8
1
  10
-43.017426
  20
47.458191
  0
VERTEX
  8
1
  10
-42.842556
  20
47.530533
  0
VERTEX
  8
1
  10
-42.663685
  20
47.607498
  0
VERTEX
  8
1
  10
-42.481133
  20
47.689011
  0
VERTEX
  8
1
  10
-42.295223
  20
47.775002
  0
VERTEX
  8
1
  10
-42.106285
  20
47.865395
  0
VERTEX
  8
1
  10
-41.914639
  20
47.960121
  0
VERTEX
  8
1
  10
-41.720608
  20
48.059105
  0
VERTEX
  8
1
  10
-41.524525
  20
48.162277
  0
VERTEX
  8
1
  10
-41.326706
  20
48.269562
  0
VERTEX
  8
1
  10
-41.127480
  20
48.380890
  0
VERTEX
  8
1
  10
-40.927174
  20
48.496185
  0
VERTEX
  8
1
  10
-40.726109
  20
48.615376
  0
VERTEX
  8
1
  10
-40.524609
  20
48.738388
  0
VERTEX
  8
1
  10
-40.524609
  20
48.738388
  0
VERTEX
  8
1
  10
-40.284294
  20
48.846306
  0
VERTEX
  8
1
  10
-40.053261
  20
48.953915
  0
VERTEX
  8
1
  10
-39.830921
  20
49.060970
  0
VERTEX
  8
1
  10
-39.616688
  20
49.167221
  0
VERTEX
  8
1
  10
-39.409977
  20
49.272430
  0
VERTEX
  8
1
  10
-39.210209
  20
49.376343
  0
VERTEX
  8
1
  10
-39.016796
  20
49.478718
  0
VERTEX
  8
1
  10
-38.829155
  20
49.579308
  0
VERTEX
  8
1
  10
-38.646698
  20
49.677864
  0
VERTEX
  8
1
  10
-38.468842
  20
49.774143
  0
VERTEX
  8
1
  10
-38.295006
  20
49.867901
  0
VERTEX
  8
1
  10
-38.124599
  20
49.958885
  0
VERTEX
  8
1
  10
-37.957043
  20
50.046856
  0
VERTEX
  8
1
  10
-37.791752
  20
50.131561
  0
VERTEX
  8
1
  10
-37.628139
  20
50.212761
  0
VERTEX
  8
1
  10
-37.465618
  20
50.290203
  0
VERTEX
  8
1
  10
-37.303612
  20
50.363647
  0
VERTEX
  8
1
  10
-37.141529
  20
50.432838
  0
VERTEX
  8
1
  10
-36.978786
  20
50.497540
  0
VERTEX
  8
1
  10
-36.814804
  20
50.557503
  0
VERTEX
  8
1
  10
-36.648994
  20
50.612476
  0
VERTEX
  8
1
  10
-36.480770
  20
50.662220
  0
VERTEX
  8
1
  10
-36.309547
  20
50.706486
  0
VERTEX
  8
1
  10
-36.134747
  20
50.745026
  0
VERTEX
  8
1
  10
-35.955780
  20
50.777596
  0
VERTEX
  8
1
  10
-35.772064
  20
50.803947
  0
VERTEX
  8
1
  10
-35.583012
  20
50.823837
  0
VERTEX
  8
1
  10
-35.388039
  20
50.837017
  0
VERTEX
  8
1
  10
-35.186565
  20
50.843239
  0
VERTEX
  8
1
  10
-35.186565
  20
50.843239
  0
VERTEX
  8
1
  10
-34.985458
  20
50.836597
  0
VERTEX
  8
1
  10
-34.791588
  20
50.822224
  0
VERTEX
  8
1
  10
-34.604374
  20
50.800453
  0
VERTEX
  8
1
  10
-34.423233
  20
50.771626
  0
VERTEX
  8
1
  10
-34.247574
  20
50.736073
  0
VERTEX
  8
1
  10
-34.076813
  20
50.694134
  0
VERTEX
  8
1
  10
-33.910370
  20
50.646145
  0
VERTEX
  8
1
  10
-33.747662
  20
50.592442
  0
VERTEX
  8
1
  10
-33.588097
  20
50.533363
  0
VERTEX
  8
1
  10
-33.431095
  20
50.469238
  0
VERTEX
  8
1
  10
-33.276073
  20
50.400410
  0
VERTEX
  8
1
  10
-33.122444
  20
50.327213
  0
VERTEX
  8
1
  10
-32.969624
  20
50.249981
  0
VERTEX
  8
1
  10
-32.817028
  20
50.169056
  0
VERTEX
  8
1
  10
-32.664070
  20
50.084766
  0
VERTEX
  8
1
  10
-32.510170
  20
49.997456
  0
VERTEX
  8
1
  10
-32.354740
  20
49.907455
  0
VERTEX
  8
1
  10
-32.197197
  20
49.815102
  0
VERTEX
  8
1
  10
-32.036957
  20
49.720734
  0
VERTEX
  8
1
  10
-31.873430
  20
49.624687
  0
VERTEX
  8
1
  10
-31.706039
  20
49.527298
  0
VERTEX
  8
1
  10
-31.534195
  20
49.428902
  0
VERTEX
  8
1
  10
-31.357315
  20
49.329834
  0
VERTEX
  8
1
  10
-31.174816
  20
49.230431
  0
VERTEX
  8
1
  10
-30.986111
  20
49.131031
  0
VERTEX
  8
1
  10
-30.790615
  20
49.031967
  0
VERTEX
  8
1
  10
-30.587746
  20
48.933578
  0
VERTEX
  8
1
  10
-30.376919
  20
48.836201
  0
VERTEX
  8
1
  10
-30.157543
  20
48.740170
  0
VERTEX
  8
1
  10
-30.157543
  20
48.740170
  0
VERTEX
  8
1
  10
-29.935871
  20
48.589954
  0
VERTEX
  8
1
  10
-29.718056
  20
48.446999
  0
VERTEX
  8
1
  10
-29.504223
  20
48.311195
  0
VERTEX
  8
1
  10
-29.294506
  20
48.182438
  0
VERTEX
  8
1
  10
-29.089027
  20
48.060612
  0
VERTEX
  8
1
  10
-28.887913
  20
47.945618
  0
VERTEX
  8
1
  10
-28.691292
  20
47.837345
  0
VERTEX
  8
1
  10
-28.499294
  20
47.735683
  0
VERTEX
  8
1
  10
-28.312038
  20
47.640526
  0
VERTEX
  8
1
  10
-28.129663
  20
47.551765
  0
VERTEX
  8
1
  10
-27.952286
  20
47.469292
  0
VERTEX
  8
1
  10
-27.780037
  20
47.393002
  0
VERTEX
  8
1
  10
-27.613049
  20
47.322784
  0
VERTEX
  8
1
  10
-27.451443
  20
47.258530
  0
VERTEX
  8
1
  10
-27.295345
  20
47.200134
  0
VERTEX
  8
1
  10
-27.144886
  20
47.147488
  0
VERTEX
  8
1
  10
-27.000191
  20
47.100483
  0
VERTEX
  8
1
  10
-26.861391
  20
47.059013
  0
VERTEX
  8
1
  10
-26.728607
  20
47.022964
  0
VERTEX
  8
1
  10
-26.601973
  20
46.992237
  0
VERTEX
  8
1
  10
-26.481609
  20
46.966721
  0
VERTEX
  8
1
  10
-26.367645
  20
46.946304
  0
VERTEX
  8
1
  10
-26.260212
  20
46.930882
  0
VERTEX
  8
1
  10
-26.159431
  20
46.920349
  0
VERTEX
  8
1
  10
-26.065435
  20
46.914589
  0
VERTEX
  8
1
  10
-25.978346
  20
46.913506
  0
VERTEX
  8
1
  10
-25.898294
  20
46.916981
  0
VERTEX
  8
1
  10
-25.825409
  20
46.924911
  0
VERTEX
  8
1
  10
-25.759809
  20
46.937187
  0
VERTEX
  8
1
  10
-25.759809
  20
46.937187
  0
VERTEX
  8
1
  10
-27.432810
  20
41.265060
  0
SEQEND
  0
POINT
  8
2
  10
-43.864742
  20
41.304516
  0
POINT
  8
2
  10
-45.005589
  20
46.988663
  0
POINT
  8
2
  10
-40.524609
  20
48.738388
  0
POINT
  8
2
  10
-35.186565
  20
50.843239
  0
POINT
  8
2
  10
-30.157543
  20
48.740170
  0
POINT
  8
2
  10
-25.759809
  20
46.937187
  0
POINT
  8
2
  10
-27.432810
  20
41.265060
  0
POINT
  8
3
  10
-44.938969
  20
46.977165
  0
POINT
  8
3
  10
-44.863152
  20
46.971455
  0
POINT
  8
3
  10
-44.778458
  20
46.971451
  0
POINT
  8
3
  10
-44.685207
  20
46.977089
  0
POINT
  8
3
  10
-44.583733
  20
46.988297
  0
POINT
  8
3
  10
-44.474358
  20
47.004997
  0
POINT
  8
3
  10
-44.357407
  20
47.027119
  0
POINT
  8
3
  10
-44.233200
  20
47.054588
  0
POINT
  8
3
  10
-44.102066
  20
47.087334
  0
POINT
  8
3
  10
-43.964329
  20
47.125286
  0
POINT
  8
3
  10
-43.820313
  20
47.168365
  0
POINT
  8
3
  10
-43.670345
  20
47.216507
  0
POINT
  8
3
  10
-43.514748
  20
47.269630
  0
POINT
  8
3
  10
-43.353844
  20
47.327667
  0
POINT
  8
3
  10
-43.187962
  20
47.390545
  0
POINT
  8
3
  10
-43.017426
  20
47.458191
  0
POINT
  8
3
  10
-42.842556
  20
47.530533
  0
POINT
  8
3
  10
-42.663685
  20
47.607498
  0
POINT
  8
3
  10
-42.481133
  20
47.689011
  0
POINT
  8
3
  10
-42.295223
  20
47.775002
  0
POINT
  8
3
  10
-42.106285
  20
47.865395
  0
POINT
  8
3
  10
-41.914639
  20
47.960121
  0
POINT
  8
3
  10
-41.720608
  20
48.059105
  0
POINT
  8
3
  10
-41.524525
  20
48.162277
  0
POINT
  8
3
  10
-41.326706
  20
48.269562
  0
POINT
  8
3
  10
-41.127480
  20
48.380890
  0
POINT
  8
3
  10
-40.927174
  20
48.496185
  0
POINT
  8
3
  10
-40.726109
  20
48.615376
  0
POINT
  8
3
  10
-40.284294
  20
48.846306
  0
POINT
  8
3
  10
-40.053261
  20
48.953915
  0
POINT
  8
3
  10
-39.830921
  20
49.060970
  0
POINT
  8
3
  10
-39.616688
  20
49.167221
  0
POINT
  8
3
  10
-39.409977
  20
49.272430
  0
POINT
  8
3
  10
-39.210209
  20
49.376343
  0
POINT
  8
3
  10
-39.016796
  20
49.478718
  0
POINT
  8
3
  10
-38.829155
  20
49.579308
  0
POINT
  8
3
  10
-38.646698
  20
49.677864
  0
POINT
  8
3
  10
-38.468842
  20
49.774143
  0
POINT
  8
3
  10
-38.295006
  20
49.867901
  0
POINT
  8
3
  10
-38.124599
  20
49.958885
  0
POINT
  8
3
  10
-37.957043
  20
50.046856
  0
POINT
  8
3
  10
-37.791752
  20
50.131561
  0
POINT
  8
3
  10
-37.628139
  20
50.212761
  0
POINT
  8
3
  10
-37.465618
  20
50.290203
  0
POINT
  8
3
  10
-37.303612
  20
50.363647
  0
POINT
  8
3
  10
-37.141529
  20
50.432838
  0
POINT
  8
3
  10
-36.978786
  20
50.497540
  0
POINT
  8
3
  10
-36.814804
  20
50.557503
  0
POINT
  8
3
  10
-36.648994
  20
50.612476
  0
POINT
  8
3
  10
-36.480770
  20
50.662220
  0
POINT
  8
3
  10
-36.309547
  20
50.706486
  0
POINT
  8
3
  10
-36.134747
  20
50.745026
  0
POINT
  8
3
  10
-35.955780
  20
50.777596
  0
POINT
  8
3
  10
-35.772064
  20
50.803947
  0
POINT
  8
3
  10
-35.583012
  20
50.823837
  0
POINT
  8
3
  10
-35.388039
  20
50.837017
  0
POINT
  8
3
  10
-34.985458
  20
50.836597
  0
POINT
  8
3
  10
-34.791588
  20
50.822224
  0
POINT
  8
3
  10
-34.604374
  20
50.800453
  0
POINT
  8
3
  10
-34.423233
  20
50.771626
  0
POINT
  8
3
  10
-34.247574
  20
50.736073
  0
POINT
  8
3
  10
-34.076813
  20
50.694134
  0
POINT
  8
3
  10
-33.910370
  20
50.646145
  0
POINT
  8
3
  10
-33.747662
  20
50.592442
  0
POINT
  8
3
  10
-33.588097
  20
50.533363
  0
POINT
  8
3
  10
-33.431095
  20
50.469238
  0
POINT
  8
3
  10
-33.276073
  20
50.400410
  0
POINT
  8
3
  10
-33.122444
  20
50.327213
  0
POINT
  8
3
  10
-32.969624
  20
50.249981
  0
POINT
  8
3
  10
-32.817028
  20
50.169056
  0
POINT
  8
3
  10
-32.664070
  20
50.084766
  0
POINT
  8
3
  10
-32.510170
  20
49.997456
  0
POINT
  8
3
  10
-32.354740
  20
49.907455
  0
POINT
  8
3
  10
-32.197197
  20
49.815102
  0
POINT
  8
3
  10
-32.036957
  20
49.720734
  0
POINT
  8
3
  10
-31.873430
  20
49.624687
  0
POINT
  8
3
  10
-31.706039
  20
49.527298
  0
POINT
  8
3
  10
-31.534195
  20
49.428902
  0
POINT
  8
3
  10
-31.357315
  20
49.329834
  0
POINT
  8
3
  10
-31.174816
  20
49.230431
  0
POINT
  8
3
  10
-30.986111
  20
49.131031
  0
POINT
  8
3
  10
-30.790615
  20
49.031967
  0
POINT
  8
3
  10
-30.587746
  20
48.933578
  0
POINT
  8
3
  10
-30.376919
  20
48.836201
  0
POINT
  8
3
  10
-29.935871
  20
48.589954
  0
POINT
  8
3
  10
-29.718056
  20
48.446999
  0
POINT
  8
3
  10
-29.504223
  20
48.311195
  0
POINT
  8
3
  10
-29.294506
  20
48.182438
  0
POINT
  8
3
  10
-29.089027
  20
48.060612
  0
POINT
  8
3
  10
-28.887913
  20
47.945618
  0
POINT
  8
3
  10
-28.691292
  20
47.837345
  0
POINT
  8
3
  10
-28.499294
  20
47.735683
  0
POINT
  8
3
  10
-28.312038
  20
47.640526
  0
POINT
  8
3
  10
-28.129663
  20
47.551765
  0
POINT
  8
3
  10
-27.952286
  20
47.469292
  0
POINT
  8
3
  10
-27.780037
  20
47.393002
  0
POINT
  8
3
  10
-27.613049
  20
47.322784
  0
POINT
  8
3
  10
-27.451443
  20
47.258530
  0
POINT
  8
3
  10
-27.295345
  20
47.200134
  0
POINT
  8
3
  10
-27.144886
  20
47.147488
  0
POINT
  8
3
  10
-27.000191
  20
47.100483
  0
POINT
  8
3
  10
-26.861391
  20
47.059013
  0
POINT
  8
3
  10
-26.728607
  20
47.022964
  0
POINT
  8
3
  10
-26.601973
  20
46.992237
  0
POINT
  8
3
  10
-26.481609
  20
46.966721
  0
POINT
  8
3
  10
-26.367645
  20
46.946304
  0
POINT
  8
3
  10
-26.260212
  20
46.930882
  0
POINT
  8
3
  10
-26.159431
  20
46.920349
  0
POINT
  8
3
  10
-26.065435
  20
46.914589
  0
POINT
  8
3
  10
-25.978346
  20
46.913506
  0
POINT
  8
3
  10
-25.898294
  20
46.916981
  0
POINT
  8
3
  10
-25.825409
  20
46.924911
  0
LINE
  8
7
  10
-35.382698
  20
42.510841
  11
-35.382698
  21
49.597458
  0
POLYLINE
  8
8
  66
1
  70
0
  250
1
  0
VERTEX
  8
8
  10
-44.661758
  20
41.958611
  0
VERTEX
  8
8
  10
-26.423065
  20
41.946533
  0
SEQEND
  0
POINT
  8
2
  10
-44.661758
  20
41.958611
  0
POINT
  8
2
  10
-26.423065
  20
41.946533
  0
ENDBLK
  0
BLOCK
  8
0
  2
Pattern_2091816_M
  70
64
  10
0
  20
0
  0
TEXT
  8
1
  10
10.387472
  20
75.763435
  50
0.000000
  51
0.000000
  71
0.000000
  1
PIECE NAME: Pattern_2091816
  7
STANDARD
  0
TEXT
  8
1
  10
10.387472
  20
70.763435
  50
0.000000
  51
0.000000
  71
0.000000
  1
SIZE: M
  7
STANDARD
  0
TEXT
  8
1
  10
10.387472
  20
60.763435
  50
0.000000
  51
0.000000
  71
0.000000
  1
QUANTITY: 1
  7
STANDARD
  0
TEXT
  8
1
  10
10.387472
  20
60.763435
  40
0.250000
  50
0.000000
  1
ROTATION: 0
  7
STANDARD
  0
POLYLINE
  8
1
  66
1
  70
1
  250
2
  0
VERTEX
  8
1
  10
-0.734575
  20
74.976036
  0
VERTEX
  8
1
  10
20.296593
  20
74.976036
  0
VERTEX
  8
1
  10
19.690128
  20
76.550835
  0
VERTEX
  8
1
  10
-0.734575
  20
76.550835
  0
SEQEND
  0
POINT
  8
2
  10
-0.734575
  20
74.976036
  0
POINT
  8
2
  10
20.296593
  20
74.976036
  0
POINT
  8
2
  10
19.690128
  20
76.550835
  0
POINT
  8
2
  10
-0.734575
  20
76.550835
  0
LINE
  8
7
  10
9.781009
  20
72.220131
  11
9.781009
  21
79.306747
  0
POLYLINE
  8
8
  66
1
  70
0
  250
1
  0
VERTEX
  8
8
  10
-0.734575
  20
75.763435
  0
VERTEX
  8
8
  10
21.509520
  20
75.763435
  0
SEQEND
  0
POINT
  8
2
  10
-0.734575
  20
75.763435
  0
POINT
  8
2
  10
21.509520
  20
75.763435
  0
ENDBLK
  0
ENDSEC
  0
SECTION
  2
ENTITIES
  0
INSERT
  8
1
  2
Pattern_636968_M
  10
0.000000
  20
0.000000
  0
INSERT
  8
1
  2
Pattern_636969_M
  10
0.000000
  20
0.000000
  0
INSERT
  8
1
  2
Pattern_1621764_M
  10
0.000000
  20
0.000000
  0
INSERT
  8
1
  2
Pattern_1621765_M
  10
0.000000
  20
0.000000
  0
INSERT
  8
1
  2
Pattern_2091816_M
  10
0.000000
  20
0.000000
  0
TEXT
  8
1
  10
0.000000
  20
0.000000
  40
0.250000
  50
0.000000
  1
STYLE NAME: tshirtgr
  7
STANDARD
  0
TEXT
  8
1
  10
0.000000
  20
0.000000
  40
0.250000
  50
0.000000
  1
CREATION DATE: 01-10-2026
  7
STANDARD
  0
TEXT
  8
1
  10
0.000000
  20
0.000000
  40
0.250000
  50
0.000000
  1
CREATION TIME: 12:25
  7
STANDARD
  0
TEXT
  8
1
  10
0.000000
  20
0.000000
  40
0.250000
  50
0.000000
  1
AUTHOR: CLO Virtual Fashion Inc.
  7
STANDARD
  0
TEXT
  8
1
  10
0.000000
  20
0.000000
  40
0.250000
  50
0.000000
  1
PRODUCT: CLO Standalone OnlineAuth 7.1.178
  7
STANDARD
  0
TEXT
  8
1
  10
0.000000
  20
0.000000
  40
0.250000
  50
0.000000
  1
VERSION: 3
  7
STANDARD
  0
TEXT
  8
1
  10
0.000000
  20
0.000000
  40
0.250000
  50
0.000000
  1
SAMPLE SIZE: M
  7
STANDARD
  0
TEXT
  8
1
  10
0.000000
  20
0.000000
  40
0.250000
  50
0.000000
  1
UNITS: ENGLISH
  7
STANDARD
  0
ENDSEC
  0
EOF
